<?xml version="1.0" encoding="utf-8"?>
<!-- Generator: Adobe Illustrator 26.5.0, SVG Export Plug-In . SVG Version: 6.00 Build 0)  -->
<svg version="1.1" id="Layer_1" xmlns="http://www.w3.org/2000/svg" xmlns:xlink="http://www.w3.org/1999/xlink" x="0px" y="0px"
	 viewBox="0 0 800 800" style="enable-background:new 0 0 800 800;" xml:space="preserve">
<style type="text/css">
	.st0{fill:#9FCFFF;}
	.st1{fill:#2C2421;stroke:#000000;stroke-width:6.2057;stroke-miterlimit:100;}
	.st2{fill-rule:evenodd;clip-rule:evenodd;fill:url(#SVGID_1_);stroke:#000000;stroke-width:6.2057;stroke-miterlimit:100;}
	
		.st3{fill-rule:evenodd;clip-rule:evenodd;fill:#FFFFFF;fill-opacity:0.6;stroke:#000000;stroke-width:6.2057;stroke-miterlimit:100;}
</style>
<g id="SVGRepo_bgCarrier">
</g>
<g id="SVGRepo_tracerCarrier">
</g>
<g id="SVGRepo_bgCarrier_00000119087754981296262650000003804110914826396088_">
</g>
<g id="SVGRepo_tracerCarrier_00000005258297133046742160000004455919181682477442_">
</g>
<g id="SVGRepo_bgCarrier_00000021827134001425399250000009625886095247412378_">
</g>
<g id="SVGRepo_tracerCarrier_00000076571009811918423230000005867567332874564018_">
</g>
<circle class="st0" cx="400" cy="400" r="400"/>
<g id="SVGRepo_iconCarrier">
	<path class="st1" d="M292.2,630.8c24.3,0,44-19.7,44-44c0-24.3-19.7-44-44-44c-24.3,0-44,19.7-44,44
		C248.2,611.1,267.9,630.8,292.2,630.8z"/>
	<path class="st1" d="M534,630.8c24.3,0,44-19.7,44-44c0-24.3-19.7-44-44-44c-24.3,0-44,19.7-44,44C490,611.1,509.7,630.8,534,630.8
		z"/>
	
		<linearGradient id="SVGID_1_" gradientUnits="userSpaceOnUse" x1="-526.8471" y1="931.9839" x2="-515.0834" y2="914.2851" gradientTransform="matrix(25 0 0 -25 13416 23398)">
		<stop  offset="0" style="stop-color:#2EAFFF"/>
		<stop  offset="1" style="stop-color:#5553E4"/>
	</linearGradient>
	<path class="st2" d="M593.7,257.1H249.4l-12.5-53.9c-2.3-10-7.5-18.1-15.5-24.5c-8-6.4-17.1-9.5-27.4-9.5h-33.8
		c-12.1,0-22,9.8-22,22c0,12.1,9.8,22,22,22h33.8l10.2,44h0l56.6,246.7c1.1,5,3.7,9.1,7.7,12.3c4,3.2,8.6,4.8,13.7,4.8h255.9
		c5,0,9.5-1.5,13.5-4.6c4-3.1,6.6-7.1,7.8-12L615,284.5c0.8-3.3,0.9-6.6,0.2-9.9c-0.7-3.3-2.1-6.3-4.2-9c-2.1-2.7-4.6-4.8-7.7-6.2
		C600.3,257.9,597.1,257.1,593.7,257.1z"/>
	<g>
		<g>
			<path class="st3" d="M271.9,329.1c-0.2-0.8-0.4-1.7-0.6-2.6c0-0.9,0-1.7,0-2.6c0-6.1,2.1-11.3,6.4-15.5c4.3-4.3,9.5-6.4,15.5-6.4
				c5.1,0,9.6,1.6,13.6,4.7c4,3.1,6.6,7.2,7.8,12.1l31.9,131.2l0,0c0.2,0.8,0.4,1.7,0.5,2.6c0.1,0.9,0.2,1.7,0.2,2.6
				c0,6.1-2.1,11.3-6.4,15.5s-9.5,6.4-15.5,6.4c-5.1,0-9.6-1.6-13.6-4.7c-4-3.1-6.6-7.2-7.8-12.1L271.9,329.1z M401.5,319.2
				c-1.2-4.9-3.8-9-7.8-12.1c-4-3.1-8.5-4.7-13.6-4.7c-6.1,0-11.3,2.1-15.5,6.4c-4.3,4.3-6.4,9.5-6.4,15.5c0,0.9,0.1,1.7,0.2,2.6
				c0.1,0.9,0.3,1.7,0.5,2.6l31.9,131.2c1.2,4.9,3.8,9,7.8,12.1c4,3.1,8.5,4.7,13.6,4.7c6.1,0,11.3-2.1,15.5-6.4
				c4.3-4.3,6.4-9.5,6.4-15.5c0-0.9-0.1-1.7-0.2-2.6c-0.1-0.9-0.3-1.7-0.5-2.6l0,0L401.5,319.2z"/>
		</g>
	</g>
</g>
</svg>
