<?xml version="1.0" encoding="utf-8"?>
<!-- Generator: Adobe Illustrator 26.5.0, SVG Export Plug-In . SVG Version: 6.00 Build 0)  -->
<svg version="1.1" id="Layer_1" xmlns="http://www.w3.org/2000/svg" xmlns:xlink="http://www.w3.org/1999/xlink" x="0px" y="0px"
	 viewBox="0 0 418.2 450.86" style="enable-background:new 0 0 418.2 450.86;" xml:space="preserve">
<style type="text/css">
	.st0{fill:#861E15;}
	.st1{fill:#AB2B1C;}
	.st2{fill:#E83C2C;}
	.st3{fill:#4D4D5F;}
	.st4{fill:#333341;}
	.st5{fill:#151521;}
	.st6{fill:#1D1D29;}
</style>
<g>
	<g>
		<polygon class="st0" points="49.4,91.15 46.61,82.76 68.66,91.15 		"/>
		<polygon class="st0" points="89.47,91.15 92.27,82.76 70.21,91.15 		"/>
	</g>
	<g>
		<polygon class="st0" points="368.8,91.15 371.59,82.76 349.54,91.15 		"/>
		<polygon class="st0" points="328.73,91.15 325.93,82.76 347.99,91.15 		"/>
	</g>
	<rect x="22.17" y="88.92" class="st1" width="362.47" height="20.48"/>
	<path class="st1" d="M51.56,109.4h37.41c-0.12-6.83-0.53-13.65-0.73-20.48H52.81C51.98,95.7,51.63,102.55,51.56,109.4z"/>
	<path class="st1" d="M328.16,109.4h37.39c-0.03-6.83-0.22-13.65-0.42-20.48h-36.42C328.45,95.74,328.25,102.57,328.16,109.4z"/>
	<rect x="22.17" y="88.92" class="st1" width="362.47" height="15.2"/>
	<g>
		<g>
			<polygon class="st1" points="84.19,62.67 79.84,62.67 60.58,62.67 56.24,62.67 49.4,444.1 60.58,444.1 79.84,444.1 91.02,444.1 
							"/>
			<polygon class="st1" points="84.39,73.9 84.19,62.67 56.24,62.67 56.03,73.9 			"/>
			<polygon class="st1" points="84.19,62.67 74.19,62.67 74.19,444.1 91.02,444.1 			"/>
			<rect x="49.4" y="52.11" class="st1" width="41.62" height="16.15"/>
			<rect x="49.4" y="52.11" class="st1" width="41.62" height="8.08"/>
			<g>
				<polygon class="st2" points="49.95,266.22 46.61,444.1 78.44,444.1 73.55,266.22 				"/>
				<polygon class="st2" points="54.65,266.22 49.95,266.22 46.61,444.1 54.65,444.1 				"/>
				<rect x="46.61" y="260.43" class="st3" width="31.84" height="11.6"/>
			</g>
		</g>
		<g>
			<polygon class="st1" points="334.01,62.67 338.36,62.67 357.62,62.67 361.96,62.67 368.8,444.1 357.62,444.1 338.36,444.1 
				327.18,444.1 			"/>
			<polygon class="st1" points="333.81,73.9 334.01,62.67 361.96,62.67 362.17,73.9 			"/>
			<polygon class="st1" points="334.01,62.67 344.01,62.67 344.01,444.1 327.18,444.1 			"/>
			
				<rect x="327.18" y="52.11" transform="matrix(-1 -1.224647e-16 1.224647e-16 -1 695.9731 120.3749)" class="st1" width="41.62" height="16.15"/>
			
				<rect x="327.18" y="52.11" transform="matrix(-1 -1.224647e-16 1.224647e-16 -1 695.9731 112.2991)" class="st1" width="41.62" height="8.08"/>
			<g>
				<polygon class="st2" points="368.25,266.22 371.59,444.1 339.76,444.1 344.65,266.22 				"/>
				<polygon class="st2" points="363.55,266.22 368.25,266.22 371.59,444.1 363.55,444.1 				"/>
				
					<rect x="339.76" y="260.43" transform="matrix(-1 -1.224647e-16 1.224647e-16 -1 711.3482 532.4472)" class="st3" width="31.84" height="11.6"/>
			</g>
		</g>
	</g>
	<g>
		<g>
			<polygon class="st2" points="269.67,36.58 144.49,36.58 19.32,36.58 25.53,58.32 144.49,58.32 269.67,58.32 388.63,58.32 
				394.84,36.58 			"/>
			<g>
				<path class="st1" d="M269.67,36.58H144.49H19.32l1.73,6.06c8.39,2.65,23.86,4.08,50.45,4.53c24.46,0.41,94.03,0.28,137.6,0.14
					c43.57,0.14,113.13,0.28,137.6-0.14c22.53-0.38,37.07-1.47,46.09-3.4l2.05-7.19H269.67z"/>
			</g>
			<path class="st4" d="M365.33,21.05c-17.01,1.62-295.46,1.62-312.47,0C16.01,17.53,6.27,6.76,6.27,6.76s3.11,21.12,8.08,26.09
				s20.5,7.45,57.15,8.08c24.46,0.41,94.03,0.28,137.6,0.14c43.57,0.14,113.13,0.28,137.6-0.14c36.65-0.62,52.18-3.11,57.15-8.08
				c4.97-4.97,8.08-26.09,8.08-26.09S402.19,17.53,365.33,21.05z"/>
			<g>
				<path class="st5" d="M365.33,29.91c27.8-2.66,40.16-9.43,44.56-12.6c1.3-5.64,2.03-10.55,2.03-10.55s-9.73,10.77-46.59,14.29
					c-17.01,1.62-295.46,1.62-312.47,0C16.01,17.53,6.27,6.76,6.27,6.76S7,11.67,8.3,17.31c4.4,3.17,16.76,9.95,44.56,12.6
					C69.88,31.54,348.32,31.54,365.33,29.91z"/>
			</g>
		</g>
		<g>
			<rect x="191.91" y="45.03" class="st6" width="34.37" height="52.87"/>
			<rect x="191.91" y="47.45" class="st4" width="34.37" height="52.87"/>
			<rect x="194.95" y="50.8" class="st3" width="28.29" height="46.17"/>
		</g>
	</g>
</g>
</svg>
